<?xml version="1.0" encoding="utf-8"?>
<!-- Generator: Adobe Illustrator 23.0.3, SVG Export Plug-In . SVG Version: 6.00 Build 0)  -->
<svg version="1.1" id="Layer_1" xmlns="http://www.w3.org/2000/svg" xmlns:xlink="http://www.w3.org/1999/xlink" x="0px" y="0px"
	 viewBox="0 0 1200 1200" enable-background="new 0 0 1200 1200" xml:space="preserve">
<g>
	<g>
		<path fill="#D980C0" d="M440.61,1136.694h475.026c16.752,0,30.333-13.581,30.333-30.333v-42.638
			c0-52.786-42.792-95.577-95.578-95.577h-500.78c-52.786,0-95.578,42.792-95.578,95.577v42.638
			c0,16.752,13.581,30.333,30.333,30.333h73.829H440.61z"/>
		<g>
			<path fill="#F0C4BC" d="M762.807,322.462c0,46.484-14.726,88.887-39.032,121.178c-3.46,4.701-7.097,9.137-11,13.306h-212.46
				c-3.903-4.17-7.54-8.605-11-13.306c-24.306-32.29-39.032-74.694-39.032-121.178c0-35.306,8.428-68.307,23.153-96.25
				c17.033,22.71,34.775,39.032,50.032,50.476c11.444,8.516,27.411-2.307,22.887-15.524c-11.177-32.911-15.968-69.371-18.008-97.492
				c15.613-10.645,33-18.274,51.54-22c8.694-1.774,17.654-2.661,26.702-2.661c9.137,0,18.008,0.887,26.613,2.661
				c19.339,3.903,37.436,11.976,53.669,23.419l9.137,9.669l27.323,29.363l9.137,9.669
				C751.541,244.22,762.807,281.744,762.807,322.462z"/>
			<ellipse fill="#F28268" cx="606.558" cy="99.573" rx="37.794" ry="36.266"/>
		</g>
		<polygon fill="#F0C4BC" points="857.26,968.145 342.743,968.145 431.453,551.21 777.421,551.21 		"/>
		<path fill="#F28268" d="M823.395,506.091c0,13.572-5.5,25.814-14.46,34.774c-4.968,4.968-11,8.871-17.742,11.355
			c-5.322,2.04-11,3.105-17.032,3.105H431.21c-4.791,0-9.403-0.71-13.839-2.04c-20.404-5.944-35.396-24.927-35.396-47.194
			c0-13.573,5.5-25.815,14.46-34.686c8.96-8.959,21.202-14.459,34.775-14.459h342.951
			C801.218,456.946,823.395,479.035,823.395,506.091z"/>
		<path fill="#D96ABA" d="M425,968.179c-10.734,63.605-18.984,120.379-25.105,168.548h-115.5c-16.766,0-30.339-13.572-30.339-30.339
			v-42.669c0-52.782,42.758-95.54,95.54-95.54H425z"/>
		<path fill="#F0AFA3" d="M509.807,555.325c-10.024,49.057-20.758,99.177-32.29,149.299c-22,95.984-39.21,184.959-52.516,263.556
			h-82.234l87.823-412.855H509.807z"/>
		<path fill="#F26D4F" d="M529.234,456.946c-5.855,30.782-12.064,62.274-18.541,94.298h-79.218l-0.887,4.081
			c-4.613-0.089-8.96-0.798-13.218-2.04c-20.404-5.944-35.396-24.927-35.396-47.194c0-13.573,5.5-25.815,14.46-34.686
			c8.96-8.959,21.202-14.459,34.775-14.459H529.234z"/>
		<path fill="#F0AFA3" d="M583.436,141.05c-12.42,81.17-30.694,192.589-54.201,315.896h-28.919c-3.903-4.17-7.54-8.605-11-13.306
			c-24.306-32.29-39.032-74.694-39.032-121.178c0-35.306,8.428-68.307,23.153-96.25c17.033,22.71,34.775,39.032,50.032,50.476
			c11.444,8.516,27.411-2.307,22.887-15.524c-11.177-32.911-15.968-69.371-18.008-97.492c15.613-10.645,33-18.274,51.54-22
			C581.04,141.406,582.282,141.228,583.436,141.05z"/>
		<path fill="#522616" d="M868.577,956.484l-74.849-391.026c24.933-8.23,42.974-31.697,42.974-59.367
			c0-34.419-28.032-62.451-62.54-62.451h-34.065c22.621-33.444,36.105-75.581,36.105-121.178c0-41.96-11.266-81.968-32.468-115.766
			c-3.903-6.21-12.064-8.073-18.363-4.17c-0.71,0.444-1.419,0.976-2.04,1.597c-4.524,4.258-5.589,11.266-2.129,16.766
			c18.54,29.54,28.387,64.67,28.387,101.573c0,47.371-16.411,90.306-42.846,121.178H506.436
			c-26.435-30.871-42.847-73.807-42.847-121.178c0-24.75,4.435-48.968,13.041-71.145c11.976,13.573,25.016,25.637,38.855,36.016
			c10.112,7.452,23.597,7.541,33.71,0.178c9.847-7.185,13.661-19.161,9.758-30.694c-10.024-29.363-14.637-61.919-16.677-86.226
			c19.783-11.976,41.871-18.274,64.315-18.274c25.548,0,50.653,8.161,72.653,23.597c5.234,3.726,12.242,3.105,16.766-1.153
			c0.71-0.62,1.242-1.33,1.774-2.04c4.169-6.032,2.75-14.282-3.282-18.54c-15.067-10.636-31.462-18.436-48.567-23.05
			c7.318-8.579,11.723-19.577,11.723-31.555c0-27.336-22.922-49.574-51.099-49.574s-51.099,22.238-51.099,49.574
			c0,11.943,4.379,22.912,11.658,31.479c-16.203,4.526-31.787,11.788-46.221,21.618c-3.903,2.662-6.121,7.185-5.766,11.887
			c1.863,26.524,6.564,65.557,18.718,101.04c-0.088,0.177-0.443,0.532-0.976,0.709c-0.532,0.178-0.976,0.089-1.419-0.355
			c-17.476-12.952-33.355-29.008-47.282-47.726c-2.75-3.637-7.185-5.589-11.71-5.234c-4.613,0.355-8.605,3.016-10.734,7.008
			c-16.234,30.782-24.75,66.178-24.75,102.46c0,45.597,13.484,87.734,36.105,121.178H431.21c-34.508,0-62.541,28.032-62.541,62.451
			c0,28.748,19.481,52.939,45.928,60.234l-82.981,390.13c-51.487,8.619-90.891,53.373-90.891,107.27v42.635
			c0,24.062,19.579,43.64,43.64,43.64h73.831c7.351,0,13.306-5.956,13.306-13.306c0-7.351-5.956-13.307-13.306-13.307h-73.831
			c-9.391,0-17.027-7.636-17.027-17.027v-42.635c0-45.137,36.548-81.872,81.6-82.239h502.127
			c45.052,0.367,81.596,37.102,81.596,82.239v42.635c0,9.391-7.637,17.027-17.023,17.027h-475.03
			c-7.351,0-13.306,5.956-13.306,13.307c0,7.351,5.956,13.306,13.306,13.306h475.03c24.062,0,43.636-19.578,43.636-43.64v-42.635
			C959.274,1009.893,919.97,965.179,868.577,956.484z M606.558,76.613c13.501,0,24.486,10.3,24.486,22.961
			c0,12.657-10.985,22.957-24.486,22.957c-13.501,0-24.486-10.3-24.486-22.957C582.072,86.913,593.057,76.613,606.558,76.613z
			 M359.185,954.839l82.157-386.208h325.882l73.906,386.208H359.185z M395.282,506.091c0-19.782,16.145-35.839,35.928-35.839h63.516
			h41.161h141.403h41.073h55.798c19.782,0,35.927,16.056,35.927,35.839s-16.145,35.927-35.927,35.927H431.21
			C411.427,542.018,395.282,525.873,395.282,506.091z"/>
		<path fill="#522616" d="M513.01,663.526c-10.495,0-19.033,8.537-19.033,19.033v38.72c0,10.491,8.537,19.028,19.033,19.028
			c10.491,0,19.028-8.537,19.028-19.028v-38.72C532.038,672.064,523.501,663.526,513.01,663.526z"/>
		<path fill="#522616" d="M647.188,778.342c-7.351,0-13.306,5.956-13.306,13.306c0,18.695-15.186,33.907-33.851,33.907
			c-18.695,0-33.907-15.212-33.907-33.907c0-7.351-5.956-13.306-13.306-13.306c-7.351,0-13.306,5.956-13.306,13.306
			c0,33.37,27.15,60.52,60.52,60.52c33.34,0,60.464-27.15,60.464-60.52C660.494,784.298,654.538,778.342,647.188,778.342z"/>
		<path fill="#522616" d="M701.232,667.186c-24.521,0-44.467,19.968-44.467,44.511c0,7.351,5.956,13.306,13.306,13.306
			s13.306-5.956,13.306-13.306c0-9.867,8.009-17.898,17.855-17.898c9.867,0,17.894,8.031,17.894,17.898
			c0,7.351,5.956,13.306,13.306,13.306c7.351,0,13.306-5.956,13.306-13.306C745.739,687.155,725.775,667.186,701.232,667.186z"/>
		<g>
			<g>
				<ellipse fill="#D96ABA" cx="453.631" cy="803.403" rx="48.79" ry="22.177"/>
			</g>
			<g>
				<ellipse fill="#D96ABA" cx="746.372" cy="803.403" rx="48.79" ry="22.177"/>
			</g>
		</g>
	</g>
</g>
</svg>
