<?xml version="1.0" encoding="utf-8"?>
<!-- Generator: Adobe Illustrator 23.0.3, SVG Export Plug-In . SVG Version: 6.00 Build 0)  -->
<svg version="1.1" id="Layer_1" xmlns="http://www.w3.org/2000/svg" xmlns:xlink="http://www.w3.org/1999/xlink" x="0px" y="0px"
	 viewBox="0 0 1200 1200" enable-background="new 0 0 1200 1200" xml:space="preserve">
<g>
	<g>
		<polygon fill="#F28268" points="672.737,106.141 672.737,149.1 619.534,149.1 619.534,232.717 576.495,232.717 576.495,149.1 
			523.293,149.1 523.293,106.141 576.495,106.141 576.495,61.911 619.534,61.911 619.534,106.141 		"/>
		<polygon fill="#F0C4BC" points="830.281,987.215 369.719,987.215 393.541,486.948 806.459,486.948 		"/>
		<path fill="#D980C0" d="M742.677,1138.089H317.463c-14.996,0-27.152-12.156-27.152-27.152v-38.167
			c0-47.251,38.304-85.555,85.555-85.555h448.268c47.251,0,85.555,38.304,85.555,85.555v38.167
			c0,14.996-12.156,27.152-27.152,27.152h-66.088H742.677z"/>
		<g>
			<path fill="#F0C4BC" d="M780.652,292.034l-24.378,99.18H435.786l-24.378-99.18c-3.573-14.373-0.317-29.301,8.814-40.974
				c9.132-11.673,22.869-18.343,37.639-18.343c6.591,0,11.911-5.321,11.911-11.911h27.555c0,6.59,5.32,11.911,11.911,11.911h224.961
				c14.77,0,28.507,6.67,37.639,18.343C780.969,262.732,784.225,277.661,780.652,292.034z"/>
			<path fill="#F0C4BC" d="M792.245,294.892l-23.664,96.321l-5.876,23.822H429.354l-5.876-23.822l-23.664-96.321
				c-9.211-37.719,19.296-74.087,58.047-74.087h11.911c0,6.59-5.32,11.911-11.911,11.911c-14.77,0-28.507,6.67-37.639,18.343
				c-9.132,11.673-12.388,26.601-8.814,40.974l24.378,99.18h320.488l24.378-99.18c3.573-14.373,0.317-29.301-8.814-40.974
				c-9.132-11.673-22.869-18.343-37.639-18.343H509.237c-6.591,0-11.911-5.321-11.911-11.911h236.872
				C772.95,220.805,801.457,257.174,792.245,294.892z"/>
		</g>
		<g>
			<path fill="#F28268" d="M858.154,447.117c0,12.07-5.003,23.107-12.943,31.048c-6.988,6.988-16.278,11.673-26.601,12.705
				c-1.509,0.159-3.018,0.238-4.526,0.238H381.391c-23.901-0.397-43.277-20.011-43.277-43.992c0-12.07,4.923-23.108,12.943-31.049
				c7.941-8.02,18.978-12.943,31.048-12.943h431.976C838.302,403.125,858.154,422.897,858.154,447.117z"/>
		</g>
		<path fill="#F26D4F" d="M488.194,415.036c-0.317,20.646-0.714,42.007-1.27,64.161H382.106c-17.708,0-32.08-14.373-32.08-32.08
			c0-17.708,14.373-32.081,32.08-32.081H488.194z"/>
		<path fill="#D96ABA" d="M451.032,987.245c-5.161,53.442-9.608,102.595-11.991,150.874H317.468
			c-15.008,0-27.157-12.149-27.157-27.157v-38.195c0-47.248,38.274-85.522,85.522-85.522H451.032z"/>
		<path fill="#F0AFA3" d="M486.765,486.979c-0.635,22.631-1.429,45.977-2.382,70.117c-7.464,184.146-22.234,316.836-33.351,430.15
			h-81.313l23.822-500.267H486.765z"/>
		<path fill="#F0AFA3" d="M488.433,391.213h-52.647l-24.378-99.18c-3.573-14.373-0.317-29.301,8.814-40.974
			c9.132-11.673,22.869-18.343,37.639-18.343c6.591,0,11.911-5.321,11.911-11.911h16.993
			C488.194,268.211,488.989,325.385,488.433,391.213z"/>
		<path fill="#522616" d="M841.719,976.976l-0.002-0.054l-22.552-474.221c28.507-2.462,50.9-26.522,50.9-55.585
			c0-30.81-25.093-55.903-55.982-55.903H780.89l22.948-93.462c5.241-21.599,0.476-43.913-13.261-61.382
			c-13.658-17.469-34.225-27.475-56.379-27.475H631.445v-47.883h41.292c6.591,0,11.911-5.32,11.911-11.911v-42.959
			c0-6.591-5.32-11.911-11.911-11.911h-41.292V61.911c0-6.511-5.321-11.911-11.911-11.911h-43.039c-6.59,0-11.911,5.4-11.911,11.911
			V94.23h-41.291c-6.591,0-11.911,5.32-11.911,11.911V149.1c0,6.591,5.32,11.911,11.911,11.911h41.291v47.883h-55.347
			c-6.591,0-11.911,5.32-11.911,11.911c0,6.59,5.32,11.911,11.911,11.911h224.961c14.77,0,28.507,6.67,37.639,18.343
			c9.132,11.673,12.388,26.601,8.814,40.974l-24.378,99.18H435.786l-24.378-99.18c-3.573-14.373-0.317-29.301,8.814-40.974
			c9.132-11.673,22.869-18.343,37.639-18.343c6.591,0,11.911-5.321,11.911-11.911c0-6.591-5.32-11.911-11.911-11.911
			c-22.155,0-42.721,10.005-56.379,27.475c-13.737,17.47-18.502,39.783-13.261,61.382l22.948,93.462h-29.063
			c-30.81,0-55.903,25.093-55.903,55.903c0,30.413,24.378,55.188,54.632,55.823l-22.552,473.983l-0.002,0.054
			c-45.366,8.313-79.881,48.064-79.881,95.795v38.164c0,21.538,17.525,39.064,39.064,39.064h425.213
			c6.58,0,11.911-5.331,11.911-11.911s-5.331-11.911-11.911-11.911H317.464c-8.406,0-15.242-6.836-15.242-15.242v-38.164
			c0-40.404,32.716-73.287,73.043-73.615h449.469c40.327,0.329,73.043,33.212,73.043,73.615v38.164
			c0,8.406-6.836,15.242-15.242,15.242h-66.089c-6.58,0-11.911,5.331-11.911,11.911S809.867,1150,816.447,1150h66.089
			c21.538,0,39.064-17.526,39.064-39.064v-38.164C921.6,1025.04,887.084,985.29,841.719,976.976z M576.495,137.189h-41.291v-19.137
			h41.291c6.591,0,11.911-5.4,11.911-11.911V73.822h19.217v32.319c0,6.511,5.32,11.911,11.911,11.911h41.291v19.137h-41.291
			c-6.591,0-11.911,5.4-11.911,11.911v59.794h-19.217V149.1C588.406,142.589,583.086,137.189,576.495,137.189z M382.187,975.304
			l22.55-472.285h390.526l22.55,472.285H382.187z M350.026,447.117c0-17.708,14.373-32.081,32.08-32.081h431.976
			c17.708,0,32.16,14.373,32.16,32.081c0,17.231-13.737,31.366-30.81,32.001c-0.397,0.079-0.873,0.079-1.35,0.079H384.568h-2.462
			C364.398,479.197,350.026,464.824,350.026,447.117z"/>
		<path fill="#522616" d="M505.735,674.067c-9.391,0-17.033,7.642-17.033,17.033v28.692c0,9.391,7.642,17.033,17.033,17.033
			c9.395,0,17.037-7.642,17.037-17.033V691.1C522.772,681.71,515.129,674.067,505.735,674.067z"/>
		<path fill="#522616" d="M690.679,674.067c-9.391,0-17.033,7.642-17.033,17.033v28.692c0,9.391,7.642,17.033,17.033,17.033
			s17.033-7.642,17.033-17.033V691.1C707.712,681.71,700.07,674.067,690.679,674.067z"/>
		<path fill="#522616" d="M642.236,774.075c-6.58,0-11.911,5.331-11.911,11.911c0,16.734-13.59,30.352-30.297,30.352
			c-16.734,0-30.352-13.617-30.352-30.352c0-6.58-5.331-11.911-11.911-11.911c-6.58,0-11.911,5.331-11.911,11.911
			c0,29.871,24.303,54.174,54.174,54.174c29.84,0,54.12-24.303,54.12-54.174C654.147,779.406,648.815,774.075,642.236,774.075z"/>
		<g>
			<g>
				<ellipse fill="#D96ABA" cx="468.978" cy="796.509" rx="43.674" ry="19.852"/>
			</g>
			<g>
				<ellipse fill="#D96ABA" cx="731.022" cy="796.509" rx="43.674" ry="19.852"/>
			</g>
		</g>
	</g>
</g>
</svg>
