<?xml version="1.0" encoding="utf-8"?>
<!-- Generator: Adobe Illustrator 23.0.3, SVG Export Plug-In . SVG Version: 6.00 Build 0)  -->
<svg version="1.1" id="Layer_1" xmlns="http://www.w3.org/2000/svg" xmlns:xlink="http://www.w3.org/1999/xlink" x="0px" y="0px"
	 viewBox="0 0 1200 1200" enable-background="new 0 0 1200 1200" xml:space="preserve">
<g>
	<g>
		<path fill="#D980C0" d="M448.835,1135.952h501.51c17.686,0,32.024-14.338,32.024-32.024v-45.015
			c0-55.729-45.177-100.906-100.906-100.906H352.762c-55.729,0-100.906,45.177-100.906,100.906v45.015
			c0,17.687,14.338,32.024,32.024,32.024h77.946H448.835z"/>
		<polygon fill="#F0C4BC" points="355.731,958.006 898.934,958.006 870.837,738.618 383.828,738.618 		"/>
		<g>
			<path fill="#F28268" d="M934.006,682.601c0,27.909-22.196,50.855-49.825,51.885c-0.656,0.094-1.405,0.094-2.06,0.094H372.635
				c-0.749,0-1.405,0-2.154-0.094c-13.486-0.468-25.568-6.181-34.559-15.172c-9.459-9.459-15.266-22.383-15.266-36.713
				c0-28.471,23.414-51.885,51.979-51.885h509.486c0.843,0,1.686,0,2.528,0.093c3.934,0.188,7.774,0.843,11.426,1.873
				c4.777,1.311,9.272,3.278,13.299,5.9c3.465,2.061,6.556,4.589,9.366,7.399c0.562,0.468,1.03,1.03,1.405,1.592
				C928.855,656.752,934.006,669.115,934.006,682.601z"/>
		</g>
		<path fill="#F0C4BC" d="M918.178,431.417c-5.151-57.223-17.982-109.296-36.807-163.523c-8.242-23.788-18.637-47.015-31.562-68.649
			c-6.743-11.613-14.33-22.758-22.664-33.341l2.248,13.111l0.094,0.188l0.041,0.239c-0.049-0.139-0.086-0.287-0.135-0.426
			c-2.903-8.71-6.182-17.045-9.834-24.912c-3.371-7.399-7.117-14.423-11.144-20.885c-3.185-5.245-7.118-10.583-13.018-12.363
			c-0.094-0.094-0.281-0.187-0.375-0.187c-6.602-1.78-12.774,1.637-17.855,6.707c0.202-2.659-0.047-5.32-0.937-7.946
			c-0.151-0.445-0.46-0.795-0.641-1.223l5.873,1.976c-2.493-1.926-5.139-3.633-7.702-5.461c-3.522-5.186-9.21-8.97-14.774-12.169
			c-36.581-21.033-77.517-34.263-119.383-39.294c-40.458-4.861-86.472-3.793-125.301,9.914c-9.44,3.332-19.411,2.114-28.93,5.89
			c-0.839,0.333-1.61,0.813-2.431,1.19c-1.957-1.555-4.003-3.101-6.159-4.538c-8.71-5.9-18.544-10.677-27.722-9.553
			c-13.58,1.592-22.571,13.955-28.284,25.662c-16.296,33.529-29.689,74.831-32.873,112.2c-0.374,3.84-0.656,7.773-0.749,11.519
			c0,0,2.154,4.589-1.311,6.93c-2.248,1.499-4.402,2.997-6.649,4.589c-0.094,0-0.094,0-0.094,0
			c-47.858,32.779-95.997,67.245-128.496,115.103c-25.193,37.181-39.804,83.634-29.876,127.465
			c9.927,43.737,48.794,82.136,93.656,82.323c17.982,0.188,35.308-5.525,52.915-9.552c3.091-0.749,6.275-1.405,9.366-1.967
			c0.937-0.188,1.873-0.374,2.903-0.562c0.468-0.094,0.937-0.188,1.499-0.281c1.405-0.187,2.903-0.468,4.495-0.562
			c-1.218,1.311-3.84,5.245,4.308,13.018c0.187,0.188,0.468,0.468,0.562,0.656c7.492,8.71,6.181,38.118,3.933,63.967
			c-0.468,4.87-0.937,9.646-1.311,14.048c-0.468,4.402-0.843,8.522-1.218,12.175h444.583c10.77,0,25.287-3.465,34.84,0
			c-0.188-3.933,38.118-4.308,38.118-4.308c0.749-5.057,1.498-10.021,2.154-14.891C921.643,551.858,924.079,496.789,918.178,431.417
			z"/>
		<path fill="#F0AFA3" d="M483.336,738.607c-8.523,56.662-21.073,128.496-38.68,219.435h-88.879l28.097-219.435H483.336z"/>
		<path fill="#D96ABA" d="M444.656,958.042c-10.209,52.728-22.103,111.732-35.964,177.946H283.849
			c-17.701,0-32.031-14.329-32.031-32.03v-45.048c0-55.725,45.236-100.867,100.961-100.867H444.656z"/>
		<path fill="#F26D4F" d="M495.136,642.892c-2.154,24.818-5.807,54.976-11.239,91.689H372.635c-0.749,0-1.405,0-2.154-0.094
			c-13.486-0.468-25.568-6.181-34.559-15.172c-9.459-9.459-15.266-22.383-15.266-36.713c0-28.471,23.414-51.885,51.979-51.885
			h20.417c-0.468,4.402-0.843,8.522-1.218,12.175H495.136z"/>
		<path fill="#F0AFA3" d="M496.166,630.716H393.051c0.374-4.402,0.843-9.179,1.311-14.048c2.248-25.849,3.559-55.257-3.933-63.967
			c-0.094-0.188-0.375-0.468-0.562-0.656c-8.149-7.774-5.526-11.707-4.308-13.018c-1.592,0.094-3.091,0.375-4.495,0.562
			c-0.562,0.094-1.031,0.188-1.499,0.281c-1.03,0.188-1.966,0.374-2.903,0.562c-3.091,0.562-6.275,1.218-9.366,1.967
			c-17.607,4.027-34.933,9.74-52.915,9.552c-44.861-0.187-83.728-38.586-93.656-82.323c-9.928-43.831,4.683-90.284,29.876-127.465
			c32.499-47.858,80.638-82.324,128.496-115.103c0,0,0,0,0.094,0c2.248-1.592,4.402-3.09,6.649-4.589
			c3.466-2.341,1.311-6.93,1.311-6.93c0.094-3.746,0.375-7.68,0.749-11.519c3.184-37.369,16.577-78.671,32.873-112.2
			c5.713-11.707,14.704-24.07,28.284-25.662c9.179-1.124,19.012,3.653,27.722,9.553c2.154,1.404,4.215,2.997,6.182,4.495
			c0.843-0.374,1.592-0.843,2.435-1.124c9.459-3.84,19.48-2.622,28.94-5.9c34.091-11.988,73.894-14.329,110.513-11.426
			c-71.553,77.921-218.03,248.468-232.078,353.643C384.81,701.145,513.305,399.293,496.166,630.716z"/>
		<path fill="#F28268" d="M504.907,76.579c-13.539,3.18-27.442,7.037-38.152,15.908c-9.356,7.75-15.72,19.483-15.543,31.63
			s7.56,24.282,18.876,28.701c12.924,5.046,27.282-0.21,40.522-4.355c77.777-24.354,167.192-7.564,230.836,43.344
			c11.739-18.876,23.477-37.752,35.216-56.628c2.729-4.389,5.572-9.344,4.56-14.412c-1.177-5.894-7.019-9.486-12.357-12.249
			c-40.233-20.83-84.881-36.521-129.34-45.531C596.944,54.357,546.362,66.844,504.907,76.579z"/>
		<path fill="#F28268" d="M844.705,353.745c2.792,50.037,13.359,99.445,15.202,149.525c0.996,27.055-0.562,54.147,0.061,81.213
			c0.244,10.574,0.909,21.492,5.639,30.953c4.73,9.46,14.545,17.145,25.08,16.209c8.565-0.761,15.88-7.034,20.069-14.543
			s5.754-16.166,7.019-24.671c4-26.9,5.637-54.107,6.17-81.297c1.929-98.483-9.599-217.671-71.659-298.837
			c-3.614,19.777-3.215,41.561-5.435,61.758C843.946,300.498,843.223,327.183,844.705,353.745z"/>
		<path fill="#522616" d="M911.841,948.163l-25.578-199.724c34.456-2.07,61.791-30.818,61.791-65.838
			c0-20.229-9.178-38.305-23.601-50.387c11.52-79.045,13.674-136.362,7.68-202.015c-4.87-54.133-16.764-107.142-37.462-166.988
			c-13.955-40.459-32.967-76.141-56.474-106.018c-0.937-1.218-2.061-2.248-3.278-2.903c-4.308-10.209-9.178-19.762-14.516-28.378
			c-2.81-4.589-9.459-15.453-21.728-18.825c-4.027-1.124-8.054-1.311-12.081-0.562c-0.027,0.005-0.054,0.021-0.081,0.025
			C743.243,74.276,688.318,54.4,631.152,50.659c-5.451-0.361-10.907-0.576-16.367-0.659c-0.073,0-0.142,0-0.215,0
			c-7.66,0-13.929,6.151-14.044,13.838c-0.114,7.76,6.082,14.14,13.838,14.259c4.985,0.073,9.965,0.27,14.949,0.594
			c48.422,3.173,94.917,19.063,132.611,44.838c-1.206,1.581-2.411,3.338-3.617,5.193c-8.335,13.299-15.078,27.348-20.042,42.051
			c-44.393-33.997-94.03-51.604-143.949-51.229c-28.471,0.281-57.036,6.088-87.38,17.795c-2.248,0.843-4.402,1.686-6.65,2.622
			c-5.994,2.435-11.988,5.057-17.982,7.96c-6.368,1.311-7.774-1.217-9.834-5.057c-0.468-0.749-0.843-1.405-1.124-1.873
			c-5.619-8.897-8.522-23.133-3.746-29.22c2.154-2.81,7.024-4.963,11.707-6.837c17.888-7.305,36.151-13.206,54.414-17.514
			c4.495-1.124,8.991-2.154,13.486-2.997c7.586-1.499,12.549-8.897,10.958-16.577c-1.498-7.586-8.804-12.456-16.483-11.051
			c-16.39,3.278-32.779,7.68-49.075,13.206h-0.094c-16.858-13.486-31.656-19.387-45.048-17.795
			c-16.202,1.873-29.408,13.205-39.335,33.529c-20.979,43.081-33.81,89.815-34.933,128.401
			c-47.015,32.124-99.368,68.837-134.209,120.16c-23.133,34.091-35.402,71.74-35.402,107.048c0,10.677,1.124,21.26,3.465,31.375
			c11.988,53.009,58.067,93.094,107.236,93.281c15.921,0,30.719-3.559,45.048-7.211c5.057-1.218,9.927-2.529,14.891-3.559
			c1.311,2.06,3.091,4.214,5.338,6.275c4.027,6.743,2.435,34.653,0.749,55.163h-7.68c-36.432,0-66.027,29.595-66.027,65.933
			c0,35.024,27.341,63.679,61.802,65.839l-25.101,195.996c-58.971,4.834-105.5,54.281-105.5,114.478v45.012
			c0,25.403,20.67,46.073,46.073,46.073h77.943c7.76,0,14.048-6.288,14.048-14.048s-6.288-14.048-14.048-14.048h-77.943
			c-9.914,0-17.977-8.062-17.977-17.977v-45.012c0-47.893,38.962-86.86,86.855-86.86h2.972h525.733
			c47.889,0,86.851,38.967,86.851,86.86v45.012c0,9.914-8.067,17.977-17.972,17.977h-501.51c-7.76,0-14.048,6.288-14.048,14.048
			S441.075,1150,448.835,1150h501.51c25.399,0,46.069-20.67,46.069-46.073v-45.012
			C996.414,1006.057,960.508,961.535,911.841,948.163z M868.073,272.484c19.949,57.504,31.374,108.453,36.057,160.245
			c4.87,53.103,4.215,100.773-2.716,160.057c-1.031,8.429-2.061,17.045-3.278,25.943c-4.589-1.218-9.366-1.873-14.329-1.967
			c-4.589-80.544-10.864-190.121-29.408-266.918c0.936-4.308,1.779-8.71,2.435-13.205c4.589-28.097,4.87-59.097,1.405-89.535
			C861.797,255.345,865.076,263.774,868.073,272.484z M433.417,98.004c3.746-7.68,9.741-17.045,17.327-17.889
			c1.498-0.187,4.683-0.094,9.927,2.341c-5.526,2.81-10.958,6.462-15.172,11.988c-10.958,14.142-10.115,33.529-3.84,49.731
			c1.686,4.308,3.746,8.429,6.088,12.081c1.498,2.716,3.09,5.058,4.683,7.118c-16.765,9.459-32.873,19.574-48.045,29.595
			c-0.468,0.281-0.843,0.562-1.218,0.843C407.381,163.843,418.151,129.378,433.417,98.004z M406.163,552.233
			c21.821,0.094,49.825,2.435,73.426,4.402c13.299,1.218,25.568,2.248,35.496,2.81c14.797,0.843,27.909,1.218,40.459,1.218
			c21.259,0,41.114-1.124,64.716-2.81c41.396-3.091,78.764-20.042,107.985-49.075c33.623-33.248,43.55-84.384,23.601-121.565
			c-3.653-6.837-12.175-9.366-19.012-5.713c-6.369,3.372-8.991,11.052-6.369,17.607c0.187,0.469,0.374,0.937,0.655,1.405
			c13.955,26.036,5.9,63.967-18.637,88.317c-24.818,24.538-55.163,38.399-90.284,40.927c-36.432,2.716-63.311,3.746-101.522,1.592
			c-9.74-0.562-21.728-1.592-34.653-2.622c-20.885-1.873-43.363-3.746-63.311-4.495c-11.426-0.281-21.915-0.281-30.812,0.468
			c-0.094,0-0.094,0-0.188,0c-1.966-0.281-4.215-0.188-6.743,0.468l-6.837,1.498c-7.399,1.311-14.61,3.091-21.634,4.87
			c-13.205,3.371-25.38,6.275-38.024,6.368c-35.87-0.187-70.991-31.468-80.075-71.365c-8.148-35.963,1.967-78.39,27.816-116.508
			c32.966-48.607,85.32-84.384,131.492-115.946c3.559-2.341,7.118-4.87,10.489-7.211c27.629-18.638,56.943-37.743,87.849-52.541
			c0.187-0.094,0.374-0.094,0.468-0.187c8.054-3.84,16.203-7.399,24.538-10.583c27.16-10.489,52.541-15.641,77.547-15.922
			c58.815-0.562,105.549,27.441,135.987,53.103c-2.06,11.52-2.996,23.227-2.903,35.027c0.094,7.774,6.369,13.955,14.048,13.955
			h0.094c7.774-0.094,14.048-6.369,13.955-14.142c-0.093-12.55,1.218-25.006,3.84-37.182c4.308-19.387,11.894-37.837,22.477-54.695
			c4.308-6.837,8.242-9.366,9.179-9.459c0.281,0,1.686,0.656,5.151,6.369c31.749,50.949,44.861,141.513,29.876,206.136
			c-0.094,0.374-0.188,0.656-0.188,0.936v0.094c0,0.188-0.094,0.374-0.094,0.562c-0.093,0.562-0.374,1.124-0.468,1.592l-0.374,1.779
			c-1.218,4.964,0.468,9.927,3.84,13.299c16.483,73.332,22.384,175.323,26.692,251.652H408.411
			c1.124-13.206,1.779-24.445,1.779-34.091C410.191,569.559,408.973,559.632,406.163,552.233z M334.704,682.601
			c0-20.885,17.045-37.837,37.93-37.837h5.338h504.148c1.03,0,2.06,0,2.997,0.187c5.994,0.375,11.52,2.248,16.39,5.151
			c0.469,0.281,0.937,0.562,1.405,0.936c0.094,0,0.188,0.094,0.374,0.188c10.021,6.837,16.671,18.356,16.671,31.374
			c0,20.885-16.952,37.93-37.837,37.93H372.635C351.75,720.532,334.704,703.486,334.704,682.601z M371.697,943.958l24.498-191.29
			h462.278l24.502,191.29h-1.509H371.697z"/>
		<path fill="#522616" d="M629.813,263.587c-11.051,0-20.042,9.084-20.042,20.136v33.81c0,11.051,8.991,20.136,20.042,20.136
			c11.145,0,20.136-9.084,20.136-20.136v-33.81C649.949,272.671,640.958,263.587,629.813,263.587z"/>
		<path fill="#522616" d="M438.1,231.275c-11.051,0-20.136,8.991-20.136,20.136v33.81c0,11.051,9.084,20.042,20.136,20.042
			c11.051,0,20.042-8.991,20.042-20.042v-33.81C458.142,240.266,449.151,231.275,438.1,231.275z"/>
		<g>
			<g>
				<ellipse fill="#D96ABA" cx="650.792" cy="384.777" rx="51.511" ry="23.414"/>
			</g>
			<g>
				<ellipse fill="#D96ABA" cx="341.728" cy="337.949" rx="51.511" ry="23.414"/>
			</g>
		</g>
	</g>
</g>
</svg>
