<?xml version="1.0" encoding="utf-8"?>
<!-- Generator: Adobe Illustrator 23.0.3, SVG Export Plug-In . SVG Version: 6.00 Build 0)  -->
<svg version="1.1" id="Layer_1" xmlns="http://www.w3.org/2000/svg" xmlns:xlink="http://www.w3.org/1999/xlink" x="0px" y="0px"
	 viewBox="0 0 1200 1200" enable-background="new 0 0 1200 1200" xml:space="preserve">
<g>
	<g>
		<polygon fill="#F0C4BC" points="877.484,905.624 322.511,905.624 351.217,616.081 848.778,616.081 		"/>
		<path fill="#D980C0" d="M741.346,1131.657H268.64c-23.093,0-41.814-18.721-41.814-41.814v-58.776
			c0-72.766,58.988-131.754,131.754-131.754h482.835c72.766,0,131.754,58.988,131.754,131.754v58.776
			c0,23.093-18.721,41.814-41.814,41.814h-53.871H741.346z"/>
		<path fill="#F0C4BC" d="M427.727,166.244c-17.879,29.984-28.15,65.031-28.15,102.476c0,110.666,89.712,200.378,200.378,200.378
			s200.378-89.712,200.378-200.378S710.62,68.342,599.954,68.342c-35.774,0-69.359,9.375-98.431,25.802L427.727,166.244z"/>
		<path fill="#F28268" d="M890.308,613.883H286.019c-3.049,0-5.544-2.495-5.544-5.544V483.824c0-3.049,2.495-5.544,5.544-5.544
			h604.289c3.049,0,5.544,2.495,5.544,5.544v124.514C895.852,611.388,893.357,613.883,890.308,613.883z"/>
		<path fill="#D96ABA" d="M435.64,899.313c-0.366,2.079-0.734,4.28-1.1,6.358c-12.229,72.638-23.968,147.967-30.939,225.986H268.597
			c-22.99,0-41.822-18.71-41.822-41.823v-58.82c0-60.287,40.477-111.036,95.872-126.689c11.373-3.301,23.48-5.013,35.952-5.013
			H435.64z"/>
		<path fill="#F0AFA3" d="M477.585,616.096c-0.245,4.158-0.49,8.438-0.612,12.718c-8.193,85.233-25.069,175.481-41.333,270.498
			H358.6c-12.473,0-24.58,1.712-35.952,5.013l28.615-288.23H477.585z"/>
		<path fill="#F26D4F" d="M489.079,478.28c-5.136,41.577-9.049,86.701-11.373,135.615H348.328c-37.298,0-67.87-30.572-67.87-67.869
			c0-18.588,7.582-35.585,19.933-47.814c12.351-12.229,29.227-19.933,47.937-19.933H489.079z"/>
		<path fill="#F0AFA3" d="M629.22,70.576c-46.591,60.777-104.922,172.302-134.638,368.45
			c-56.985-35.219-95.016-98.318-95.016-170.345c0-37.42,10.272-72.393,28.126-102.476l73.861-72.027
			c28.982-16.508,62.611-25.802,98.441-25.802C609.898,68.375,619.682,69.109,629.22,70.576z"/>
		<path fill="#522616" d="M894.451,890.828l-26.603-268.42c27.503-14.403,46.341-43.185,46.341-76.329
			c0-47.5-38.644-86.144-86.138-86.144H705.887c67.185-37.372,112.79-109.038,112.79-191.216C818.677,148.116,720.561,50,599.958,50
			c-37.677,0-74.829,9.745-107.455,28.171c-8.825,4.986-11.942,16.175-6.95,24.995c4.968,8.819,16.17,11.918,24.983,6.95
			c27.144-15.328,58.062-23.43,89.422-23.43c100.373,0,182.033,81.66,182.033,182.033c0,100.379-81.66,182.039-182.033,182.039
			c-100.385,0-182.045-81.66-182.045-182.039c0-32.835,8.837-65.018,25.568-93.082c5.195-8.7,2.341-19.961-6.353-25.15
			c-8.718-5.177-19.967-2.341-25.15,6.365c-20.122,33.736-30.751,72.423-30.751,111.867c0,82.178,45.61,153.844,112.799,191.216
			H348.28c-47.505,0-86.15,38.644-86.15,86.144c0,41.709,29.795,76.567,69.215,84.459l-25.808,260.295
			c-56.626,21.497-97.051,76.166-97.051,140.237v58.773c0,33.169,26.989,60.158,60.152,60.158H741.34
			c10.127,0,18.343-8.21,18.343-18.343s-8.216-18.343-18.343-18.343H268.638c-12.945,0-23.466-10.527-23.466-23.472v-58.773
			c0-49.652,32.12-91.853,76.64-107.175c0.235,0.009,0.461,0.073,0.696,0.073h554.971c0.24,0,0.467-0.066,0.705-0.075
			c44.521,15.322,76.643,57.523,76.643,107.177v58.773c0,12.945-10.533,23.472-23.478,23.472h-53.871
			c-10.127,0-18.343,8.21-18.343,18.343S867.353,1150,877.479,1150h53.871c33.175,0,60.164-26.989,60.164-60.158v-58.773
			C991.514,966.994,951.084,912.322,894.451,890.828z M298.816,546.079c0-27.27,22.188-49.458,49.464-49.458h479.772
			c27.264,0,49.452,22.188,49.452,49.458c0,27.276-22.188,49.464-49.452,49.464H348.28
			C321.004,595.543,298.816,573.354,298.816,546.079z M367.829,634.426h464.343l24.506,247.317
			c-5.019-0.509-10.111-0.773-15.263-0.773H358.586c-5.156,0-10.251,0.263-15.274,0.773L367.829,634.426z"/>
		<path fill="#522616" d="M415.573,747.529c10.127,0,18.343-8.21,18.343-18.343c0-13.602,11.046-24.666,24.625-24.666
			c13.602,0,24.66,11.064,24.66,24.666c0,10.133,8.216,18.343,18.343,18.343c10.127,0,18.343-8.21,18.343-18.343
			c0-33.832-27.514-61.352-61.346-61.352c-33.808,0-61.31,27.52-61.31,61.352C397.23,739.319,405.446,747.529,415.573,747.529z"/>
		<path fill="#522616" d="M698.361,747.529c10.127,0,18.343-8.21,18.343-18.343c0-13.602,11.046-24.666,24.613-24.666
			c13.602,0,24.672,11.064,24.672,24.666c0,10.133,8.216,18.343,18.343,18.343c10.127,0,18.343-8.21,18.343-18.343
			c0-33.832-27.526-61.352-61.358-61.352c-33.796,0-61.299,27.52-61.299,61.352C680.018,739.319,688.234,747.529,698.361,747.529z"
			/>
		<path fill="#522616" d="M600.03,842.098c33.856,0,61.406-27.574,61.406-61.466c0-10.133-8.216-18.343-18.343-18.343
			c-10.127,0-18.343,8.21-18.343,18.343c0,13.662-11.094,24.78-24.72,24.78c-13.662,0-24.78-11.118-24.78-24.78
			c0-10.133-8.216-18.343-18.343-18.343c-10.127,0-18.343,8.21-18.343,18.343C538.564,814.524,566.138,842.098,600.03,842.098z"/>
		<g>
			<g>
				<ellipse fill="#D96ABA" cx="434.911" cy="802.022" rx="67.258" ry="30.572"/>
			</g>
			<g>
				<ellipse fill="#D96ABA" cx="765.084" cy="802.022" rx="67.258" ry="30.572"/>
			</g>
		</g>
	</g>
</g>
</svg>
