<svg version="1.1" id="Layer_1" xmlns="http://www.w3.org/2000/svg" xmlns:xlink="http://www.w3.org/1999/xlink" x="0px" y="0px" viewBox="0 0 1200 1200" enable-background="new 0 0 1200 1200" xml:space="preserve">
<g>
	<g>
		<path fill="#D980C0" d="M451.429,1137.597h442.774c15.615,0,28.274-12.659,28.274-28.274v-39.743&#xA;&#9;&#9;&#9;c0-49.202-39.886-89.088-89.088-89.088h-466.78c-49.202,0-89.088,39.886-89.088,89.088v39.743&#xA;&#9;&#9;&#9;c0,15.615,12.658,28.274,28.274,28.274h68.817H451.429z"/>
		<polygon fill="#F0C4BC" points="839.803,980.492 360.22,980.492 385.026,459.566 814.997,459.566 &#9;&#9;"/>
		<path fill="#F0C4BC" d="M686.514,249.677c-23.651,0-35.953-13.547-46.717-25.556c-10.325-11.496-20.063-22.406-39.541-22.406&#xA;&#9;&#9;&#9;c-19.331,0-29.143,10.911-39.614,22.406c-10.691,12.009-22.846,25.556-46.57,25.556c-23.725,0-35.953-13.547-46.644-25.556&#xA;&#9;&#9;&#9;c-2.563-2.782-5.126-5.565-7.762-8.201c29.29-46.644,81.205-77.69,140.37-77.69c59.311,0,111.373,31.12,140.663,77.984&#xA;&#9;&#9;&#9;c-2.563,2.489-4.979,5.199-7.469,7.908L686.514,249.677z"/>
		<circle fill="#F28268" cx="600.073" cy="99.251" r="36.848"/>
		<path fill="#F0C4BC" d="M733.231,224.122c2.489-2.709,4.906-5.418,7.469-7.908c8.128-8.128,17.354-14.499,32.145-14.499&#xA;&#9;&#9;&#9;c19.331,0,29.216,10.911,39.541,22.406l-33.097,156.846H421.37l-33.097-156.846c10.398-11.496,20.209-22.406,39.541-22.406&#xA;&#9;&#9;&#9;c14.645,0,23.798,6.224,31.853,14.205c2.636,2.636,5.199,5.419,7.762,8.201c10.69,12.009,22.919,25.556,46.644,25.556&#xA;&#9;&#9;&#9;c23.724,0,35.879-13.547,46.57-25.556c10.471-11.496,20.283-22.406,39.614-22.406c19.478,0,29.216,10.911,39.541,22.406&#xA;&#9;&#9;&#9;c10.342,11.539,22.105,24.497,43.99,25.494L733.231,224.122z"/>
		<g>
			<path fill="#F28268" d="M860.544,418.089c0,12.568-5.127,24.062-13.478,32.33c-5.375,5.375-12.072,9.426-19.514,11.576&#xA;&#9;&#9;&#9;&#9;c-3.969,1.24-8.103,1.819-12.403,1.902H364.837c-25.219,0-45.809-20.589-45.809-45.808c0-12.569,5.127-24.062,13.478-32.331&#xA;&#9;&#9;&#9;&#9;c8.269-8.351,19.68-13.478,32.331-13.478h449.815C839.873,372.28,860.544,392.87,860.544,418.089z"/>
		</g>
		<path fill="#D96ABA" d="M437.106,980.524c-6.036,60.444-11.163,114.687-13.478,157.105H305.799&#xA;&#9;&#9;&#9;c-15.628,0-28.279-12.651-28.279-28.279v-39.772c0-49.199,39.855-89.054,89.053-89.054H437.106z"/>
		<path fill="#F26D4F" d="M483.245,372.28c-0.248,2.894-0.496,5.788-0.662,8.682c-1.819,26.046-3.473,52.423-5.044,78.635&#xA;&#9;&#9;&#9;c-0.083,1.489-0.166,2.894-0.248,4.3H364.837c-25.219,0-45.809-20.589-45.809-45.808c0-12.569,5.127-24.062,13.478-32.331&#xA;&#9;&#9;&#9;c8.269-8.351,19.68-13.478,32.331-13.478H483.245z"/>
		<path fill="#F0AFA3" d="M384.847,463.897h92.444c-2.15,36.63-3.969,72.847-5.292,107.327&#xA;&#9;&#9;&#9;c-4.961,128.413-22.077,282.458-34.894,409.299h-76.899L384.847,463.897z"/>
		<path fill="#F0AFA3" d="M498.872,172.84c-1.902,21.912-3.969,46.305-6.119,72.434c-3.142,39.359-6.449,82.521-9.509,127.007&#xA;&#9;&#9;&#9;h-63.669l-31.338-148.174c10.418-11.494,20.258-22.408,39.607-22.408c14.636,0,23.731,6.202,31.834,14.222&#xA;&#9;&#9;&#9;C470.097,199.3,483.41,184.664,498.872,172.84z"/>
		<path fill="#522616" d="M851.699,969.831l-0.003-0.056l-23.566-495.128c25.716-6.036,44.817-29.105,44.817-56.557&#xA;&#9;&#9;&#9;c0-32.083-26.129-58.212-58.295-58.212h-18.273l28.113-133.208c0.827-3.886-0.248-7.855-2.894-10.832&#xA;&#9;&#9;&#9;c-10.584-11.824-23.814-26.543-48.785-26.543c-12.63,0-22.125,3.792-29.561,8.742c-25.846-35.008-62.971-58.873-104.794-68.001&#xA;&#9;&#9;&#9;c6.783-8.44,10.867-19.138,10.867-30.783c0-27.16-22.093-49.253-49.253-49.253S550.82,72.093,550.82,99.253&#xA;&#9;&#9;&#9;c0,11.644,4.083,22.34,10.864,30.779c-41.693,9.106-78.742,32.89-104.583,67.771c-7.356-4.791-16.779-8.509-29.257-8.509&#xA;&#9;&#9;&#9;c-24.806,0-37.54,14.057-48.785,26.543c-2.646,2.894-3.72,6.946-2.894,10.832l28.114,133.208h-39.442&#xA;&#9;&#9;&#9;c-32.082,0-58.212,26.129-58.212,58.212s26.129,58.211,58.212,58.211h6.945L348.3,969.775l-0.003,0.056&#xA;&#9;&#9;&#9;c-47.24,8.656-83.179,50.048-83.179,99.751v39.74c0,22.428,18.245,40.677,40.673,40.677h68.818&#xA;&#9;&#9;&#9;c6.852,0,12.403-5.552,12.403-12.403c0-6.852-5.551-12.403-12.403-12.403h-68.818c-8.749,0-15.867-7.118-15.867-15.871v-39.74&#xA;&#9;&#9;&#9;c0-42.072,34.063-76.313,76.056-76.655h468.035c41.993,0.342,76.06,34.583,76.06,76.655v39.74c0,8.753-7.118,15.871-15.871,15.871&#xA;&#9;&#9;&#9;H451.43c-6.852,0-12.403,5.552-12.403,12.403c0,6.851,5.551,12.403,12.403,12.403h442.774c22.428,0,40.677-18.249,40.677-40.677&#xA;&#9;&#9;&#9;v-39.74C934.881,1019.879,898.94,978.487,851.699,969.831z M600.073,74.806c13.481,0,24.447,10.966,24.447,24.447&#xA;&#9;&#9;&#9;c0,13.477-10.966,24.443-24.447,24.443c-13.481,0-24.447-10.966-24.447-24.443C575.626,85.772,586.592,74.806,600.073,74.806z&#xA;&#9;&#9;&#9; M401.715,227.827c8.351-8.848,14.801-13.726,26.129-13.726c10.305,0,16.419,4.033,23.011,10.532&#xA;&#9;&#9;&#9;c0.018,0.018,0.024,0.042,0.042,0.06c2.515,2.515,4.958,5.176,7.267,7.679c11.164,12.536,26.449,29.707,55.906,29.707&#xA;&#9;&#9;&#9;c13.244,0,23.517-3.573,31.955-8.563c10.276-6.066,17.781-14.276,23.957-21.223c1.589-1.746,3.061-3.331,4.486-4.83&#xA;&#9;&#9;&#9;c8.344-8.762,14.574-13.344,25.785-13.344c13.275,0,19.493,6.238,30.309,18.286c4.339,4.841,9.331,10.356,15.477,15.322&#xA;&#9;&#9;&#9;c0.357,0.287,0.755,0.545,1.12,0.828c1.963,1.529,4.047,2.976,6.265,4.342c0.289,0.177,0.523,0.391,0.816,0.565&#xA;&#9;&#9;&#9;c1.075,0.662,2.067,1.241,3.142,1.737c0.17,0.091,0.342,0.15,0.51,0.238c0.78,0.396,1.594,0.755,2.406,1.123&#xA;&#9;&#9;&#9;c0.274,0.115,0.519,0.268,0.805,0.375c0.992,0.496,2.067,0.909,3.142,1.24c0.232,0.095,0.501,0.152,0.737,0.242&#xA;&#9;&#9;&#9;c1.101,0.391,2.205,0.77,3.362,1.105c0.575,0.173,1.11,0.386,1.689,0.555c1.075,0.248,2.15,0.496,3.308,0.744h0.331&#xA;&#9;&#9;&#9;c0.408,0.096,0.839,0.142,1.249,0.216c0.643,0.111,1.267,0.241,1.926,0.334c0.379,0.058,0.735,0.13,1.124,0.195h0.579&#xA;&#9;&#9;&#9;c1.323,0.165,2.729,0.331,4.217,0.413h0.909c0.214,0,0.415-0.05,0.627-0.061c0.762,0.024,1.428,0.163,2.21,0.163&#xA;&#9;&#9;&#9;c6.852,0,12.403-5.551,12.403-12.403s-5.551-12.403-12.403-12.403c-2.067,0-3.985-0.172-5.837-0.424&#xA;&#9;&#9;&#9;c-0.207-0.035-0.438-0.055-0.638-0.091c-0.234-0.026-0.407-0.076-0.625-0.104c-1.56-0.264-3.05-0.611-4.473-1.04&#xA;&#9;&#9;&#9;c-0.464-0.137-0.908-0.294-1.355-0.446c-1.171-0.404-2.291-0.87-3.38-1.375c-0.562-0.269-1.145-0.511-1.687-0.815&#xA;&#9;&#9;&#9;c-1.279-0.674-2.527-1.388-3.712-2.186c-0.077-0.051-0.153-0.102-0.23-0.153c-1.406-0.992-2.729-1.984-4.052-3.142&#xA;&#9;&#9;&#9;c-1.896-1.555-3.672-3.297-5.423-5.101c-0.5-0.515-1.001-1.03-1.495-1.557c-1.425-1.523-2.841-3.074-4.272-4.662&#xA;&#9;&#9;&#9;c-0.133-0.148-0.264-0.291-0.398-0.44c-5.562-6.194-11.494-12.801-19.155-17.859c-7.66-5.067-17.047-8.584-29.536-8.584&#xA;&#9;&#9;&#9;c-24.723,0-37.374,13.974-48.868,26.543c-1.414,1.605-2.825,3.18-4.247,4.726c-5.756,6.216-11.832,11.703-20.071,14.574&#xA;&#9;&#9;&#9;c-3.806,1.317-8.043,2.117-12.974,2.117c-6.692,0-12.153-1.399-16.9-3.686c-8.264-4.002-14.322-10.756-20.632-17.843&#xA;&#9;&#9;&#9;c-0.351-0.384-0.707-0.763-1.058-1.147c28.803-40.217,74.681-63.945,124.539-63.945c50.047,0,96.034,23.83,124.83,64.201&#xA;&#9;&#9;&#9;l-0.011,0.011l-0.44,0.537l-0.32,0.35c-0.139,0.151-0.176,0.35-0.306,0.506c-0.851,1.02-1.513,2.12-1.986,3.29&#xA;&#9;&#9;&#9;c-0.187,0.467-0.276,0.934-0.404,1.416c-0.262,0.969-0.417,1.931-0.44,2.924c-0.01,0.483-0.011,0.94,0.035,1.422&#xA;&#9;&#9;&#9;c0.102,1.091,0.368,2.137,0.759,3.171c0.129,0.343,0.187,0.69,0.346,1.022c0.05,0.105,0.057,0.224,0.111,0.328&#xA;&#9;&#9;&#9;c0,0.083,0.083,0.166,0.166,0.248c0.579,1.157,1.488,2.232,2.48,3.224c5.044,4.63,12.899,4.3,17.53-0.744l1.162-1.316l0.077-0.084&#xA;&#9;&#9;&#9;c1.532-1.679,3.071-3.302,4.638-4.89c0.412-0.406,0.801-0.834,1.234-1.234c6.698-6.78,12.899-10.915,23.317-10.915&#xA;&#9;&#9;&#9;c11.411,0,17.861,4.879,26.129,13.726l-27.865,132.05H429.581L401.715,227.827z M364.837,451.494&#xA;&#9;&#9;&#9;c-18.439,0-33.406-14.966-33.406-33.405c0-18.439,14.967-33.406,33.406-33.406h44.733h381.517h23.565&#xA;&#9;&#9;&#9;c18.44,0,33.489,14.966,33.489,33.406c0,15.462-10.584,28.444-24.889,32.247c-2.729,0.744-5.623,1.158-8.6,1.158H375.669H364.837z&#xA;&#9;&#9;&#9; M803.325,476.3l23.482,491.789H373.19L396.672,476.3H803.325z"/>
		<path fill="#522616" d="M600.024,835.633c31.076,0,56.359-25.307,56.359-56.411c0-6.852-5.551-12.403-12.403-12.403&#xA;&#9;&#9;&#9;c-6.852,0-12.403,5.552-12.403,12.403c0,17.426-14.155,31.605-31.553,31.605c-17.426,0-31.605-14.18-31.605-31.605&#xA;&#9;&#9;&#9;c0-6.852-5.552-12.403-12.403-12.403c-6.852,0-12.403,5.552-12.403,12.403C543.613,810.326,568.92,835.633,600.024,835.633z"/>
		<path fill="#522616" d="M474.101,717.102c6.852,0,12.403-5.552,12.403-12.403c0-9.197,7.465-16.679,16.642-16.679&#xA;&#9;&#9;&#9;c9.197,0,16.679,7.481,16.679,16.679c0,6.852,5.551,12.403,12.403,12.403c6.852,0,12.403-5.552,12.403-12.403&#xA;&#9;&#9;&#9;c0-22.876-18.609-41.485-41.485-41.485c-22.856,0-41.448,18.609-41.448,41.485C461.698,711.55,467.249,717.102,474.101,717.102z"/>
		<path fill="#522616" d="M665.31,717.102c6.852,0,12.403-5.552,12.403-12.403c0-9.197,7.469-16.679,16.646-16.679&#xA;&#9;&#9;&#9;c9.197,0,16.679,7.481,16.679,16.679c0,6.852,5.552,12.403,12.403,12.403c6.852,0,12.403-5.552,12.403-12.403&#xA;&#9;&#9;&#9;c0-22.876-18.609-41.485-41.485-41.485c-22.856,0-41.452,18.609-41.452,41.485C652.907,711.55,658.458,717.102,665.31,717.102z"/>
		<g>
			<g>
				<ellipse fill="#D96ABA" cx="463.565" cy="790.18" rx="45.478" ry="20.672"/>
			</g>
			<g>
				<ellipse fill="#D96ABA" cx="736.432" cy="790.18" rx="45.478" ry="20.672"/>
			</g>
		</g>
	</g>
</g>
</svg>