<?xml version="1.0" encoding="utf-8"?>
<!-- Generator: Adobe Illustrator 23.0.3, SVG Export Plug-In . SVG Version: 6.00 Build 0)  -->
<svg version="1.1" id="Layer_1" xmlns="http://www.w3.org/2000/svg" xmlns:xlink="http://www.w3.org/1999/xlink" x="0px" y="0px"
	 viewBox="0 0 1200 1200" enable-background="new 0 0 1200 1200" xml:space="preserve">
<g>
	<g>
		<path fill="#F0C4BC" d="M370.787,66.287c14.412,0,26.095,10.069,26.095,22.491v77.209c0,15.708,14.775,28.443,33.001,28.443
			h74.561c18.226,0,33.001-12.734,33.001-28.443V88.778c0-12.421,11.683-22.491,26.095-22.491h88.372
			c14.412,0,26.095,10.069,26.095,22.491v77.209c0,15.708,14.775,28.443,33.001,28.443h74.56c18.226,0,33.001-12.734,33.001-28.443
			V88.778c0-12.421,11.683-22.491,26.095-22.491h88.284c14.412,0,26.095,10.069,26.095,22.491v244.395
			c0,46.36-43.605,83.942-97.394,83.942H353.802c-53.789,0-97.394-37.582-97.394-83.942V88.778
			c0-12.421,11.683-22.491,26.095-22.491h5.433H370.787z"/>
		<path fill="#D980C0" d="M795.098,1133.713H213.66c-20.505,0-37.128-16.623-37.128-37.128v-52.189
			c0-64.611,52.377-116.988,116.988-116.988h612.962c64.611,0,116.988,52.377,116.988,116.988v52.189
			c0,20.505-16.623,37.128-37.128,37.128h-90.368H795.098z"/>
		<polygon fill="#F0C4BC" points="944.33,927.408 260.265,927.408 325.414,525.655 890.039,525.655 		"/>
		<g>
			<path fill="#F28268" d="M967.511,465.217c0,16.613-6.733,31.597-17.699,42.564c-10.858,10.967-25.951,17.699-42.456,17.699
				H316.563c-2.606,0-5.104-0.109-7.601-0.543c-29.535-3.692-52.554-29.208-52.554-59.72c0-16.613,6.732-31.598,17.699-42.456
				c3.475-3.583,7.492-6.732,11.836-9.229c5.863-3.583,12.486-6.189,19.545-7.492c3.583-0.651,7.275-0.978,11.076-0.978h590.793
				c1.412,0,2.823,0,4.126,0.217c7.71,0.434,15.093,2.497,21.716,5.754C953.503,420.59,967.511,441.329,967.511,465.217z"/>
		</g>
		<path fill="#F26D4F" d="M428.402,525.48H316.563c-2.606,0-5.104-0.109-7.601-0.543c-29.535-3.692-52.554-29.208-52.554-59.72
			c0-16.613,6.732-31.598,17.699-42.456c3.475-3.583,7.492-6.732,11.836-9.229c5.863-3.583,12.486-6.189,19.545-7.492
			c14.224,7.057,30.729,11.075,48.319,11.075h57.44c3.041,52.988,7.927,92.621,15.202,103.587
			C427.208,521.897,427.859,523.526,428.402,525.48z"/>
		<path fill="#F0AFA3" d="M410.486,405.062h-93.923c-3.801,0-7.492,0.326-11.076,0.978c-29.317-14.442-49.079-41.696-49.079-72.859
			V88.764c0-12.378,11.727-22.477,26.06-22.477h88.277c14.442,0,26.168,10.099,26.168,22.477v77.202
			c0,7.709,3.475,14.55,9.121,19.653C406.143,258.803,407.228,340.348,410.486,405.062z"/>
		<path fill="#D96ABA" d="M349.029,927.449c-14.442,72.75-26.06,144.74-29.643,206.305H213.627
			c-20.521,0-37.135-16.613-37.135-37.135v-52.228c0-64.606,52.445-116.943,117.051-116.943H349.029z"/>
		<path fill="#F0AFA3" d="M349.029,927.449h-88.711l65.149-401.753h102.935C437.414,565.004,384.643,748.181,349.029,927.449z"/>
		<path fill="#522616" d="M960.095,922.471l-51.461-380.811c0.009-0.002,0.017,0,0.025-0.002
			c41.587-0.651,75.139-34.638,75.139-76.441c0-27.797-14.984-52.228-37.244-65.475c17.808-17.699,28.774-40.936,28.774-66.561
			V88.764c0-21.39-19.002-38.764-42.347-38.764h-88.277c-23.453,0-42.455,17.373-42.455,38.764v77.202
			c0,6.623-7.601,12.161-16.721,12.161H711.04c-9.12,0-16.721-5.538-16.721-12.161V88.764c0-21.39-19.002-38.764-42.455-38.764
			h-88.277c-23.454,0-42.456,17.373-42.456,38.764v77.202c0,6.623-7.601,12.161-16.721,12.161h-74.487
			c-9.121,0-16.722-5.538-16.722-12.161V88.764C413.2,67.373,394.198,50,370.745,50c-8.904,0-16.287,7.275-16.287,16.287
			c0,9.012,7.383,16.287,16.287,16.287c5.646,0,9.881,3.258,9.881,6.189v77.202c0,24.648,22.042,44.736,49.297,44.736h74.487
			c27.254,0,49.296-20.088,49.296-44.736V88.764c0-2.931,4.235-6.189,9.881-6.189h88.277c5.646,0,9.881,3.258,9.881,6.189v77.202
			c0,24.648,22.042,44.736,49.296,44.736h74.488c27.254,0,49.296-20.088,49.296-44.736V88.764c0-2.931,4.235-6.189,9.881-6.189
			h88.277c5.538,0,9.773,3.258,9.773,6.189v244.418c0,23.019-13.899,43.433-35.072,55.594H316.563c-2.715,0-5.429,0.109-8.035,0.435
			h-0.109c-21.5-12.162-35.724-32.792-35.724-56.029V88.764c0-2.931,4.235-6.189,9.773-6.189h5.429
			c9.012,0,16.287-7.275,16.287-16.287c0-9.012-7.275-16.287-16.287-16.287h-5.429c-23.345,0-42.347,17.373-42.347,38.764v244.418
			c0,27.145,12.27,51.794,32.249,69.818c-19.545,13.79-32.249,36.592-32.249,62.218c0,38.763,28.883,70.904,66.235,75.79
			c0.023,0.003,0.045,0.002,0.068,0.005l-61.529,379.424c-49.483,19.484-84.651,67.643-84.651,123.961v52.186
			c0,29.452,23.964,53.416,53.416,53.416h581.437c8.997,0,16.287-7.29,16.287-16.287c0-8.997-7.29-16.287-16.287-16.287H213.66
			c-11.494,0-20.842-9.347-20.842-20.841v-52.186c0-55.526,45.177-100.703,100.703-100.703h612.962
			c55.526,0,100.698,45.177,100.698,100.703v52.186c0,11.494-9.347,20.841-20.842,20.841h-90.365
			c-8.997,0-16.287,7.29-16.287,16.287c0,8.997,7.29,16.287,16.287,16.287h90.365c29.452,0,53.416-23.964,53.416-53.416v-52.186
			C1039.756,989.984,1006.941,943.154,960.095,922.471z M272.695,465.217c0-19.871,13.139-36.593,31.272-42.022
			c4.017-1.194,8.252-1.846,12.596-1.846h590.793c2.389,0,4.669,0.217,6.949,0.543c20.956,3.366,36.918,21.5,36.918,43.325
			c0,24.214-19.654,43.975-43.867,43.975H316.563C292.349,509.193,272.695,489.431,272.695,465.217z M293.522,911.12h-14.119
			l59.868-369.178h536.531l49.89,369.178h-19.209H293.522z"/>
		<path fill="#522616" d="M657.753,754.631c-8.997,0-16.287,7.29-16.287,16.287c0,22.883-18.583,41.503-41.429,41.503
			c-22.883,0-41.503-18.62-41.503-41.503c0-8.997-7.29-16.287-16.287-16.287c-8.997,0-16.287,7.29-16.287,16.287
			c0,40.845,33.232,74.077,74.077,74.077c40.803,0,74.003-33.232,74.003-74.077C674.04,761.921,666.75,754.631,657.753,754.631z"/>
		<path fill="#522616" d="M465.847,618.575c-32.156,0-58.315,24.436-58.315,54.476c0,8.997,7.29,16.287,16.287,16.287
			s16.287-7.29,16.287-16.287c0-12.078,11.547-21.902,25.74-21.902c14.225,0,25.793,9.824,25.793,21.902
			c0,8.997,7.29,16.287,16.287,16.287s16.287-7.29,16.287-16.287C524.215,643.011,498.03,618.575,465.847,618.575z"/>
		<path fill="#522616" d="M742.529,618.575c-32.156,0-58.32,24.436-58.32,54.476c0,8.997,7.29,16.287,16.287,16.287
			c8.997,0,16.287-7.29,16.287-16.287c0-12.078,11.547-21.902,25.746-21.902c14.225,0,25.793,9.824,25.793,21.902
			c0,8.997,7.29,16.287,16.287,16.287c8.997,0,16.287-7.29,16.287-16.287C800.897,643.011,774.712,618.575,742.529,618.575z"/>
		<g>
			<g>
				<ellipse fill="#D96ABA" cx="420.841" cy="785.305" rx="59.72" ry="27.145"/>
			</g>
			<g>
				<ellipse fill="#D96ABA" cx="779.161" cy="785.305" rx="59.72" ry="27.145"/>
			</g>
		</g>
	</g>
</g>
</svg>
